<svg width="7" height="8" viewBox="0 0 7 8" fill="none" xmlns="http://www.w3.org/2000/svg">
<g id="ps:coffee-hot" clip-path="url(#clip0_13409_121)">
<path id="Vector" d="M0.585938 3.78612V5.78903C0.585938 6.34095 0.774913 6.81052 1.15286 7.19775C1.53081 7.58498 1.98913 7.7786 2.52782 7.7786H3.08823C3.57479 7.7786 3.99835 7.61614 4.35893 7.29122C4.7195 6.9663 4.93454 6.55904 5.00405 6.06944H5.03011C5.33421 6.06944 5.59704 5.95817 5.8186 5.73562C6.04015 5.51307 6.15093 5.24602 6.15093 4.93445C6.15093 4.62289 6.04015 4.35361 5.8186 4.12661C5.59704 3.89962 5.33421 3.78612 5.03011 3.78612C5.03011 3.63478 4.97581 3.50348 4.8672 3.39221C4.7586 3.28094 4.63044 3.2253 4.48274 3.2253H1.14635C0.989953 3.2253 0.857454 3.28094 0.748847 3.39221C0.640241 3.50348 0.585938 3.63478 0.585938 3.78612ZM5.03011 4.36029C5.18651 4.36029 5.31901 4.41592 5.42761 4.5272C5.53622 4.63847 5.59052 4.77422 5.59052 4.93445C5.59052 5.08579 5.53622 5.21709 5.42761 5.32836C5.31901 5.43963 5.18651 5.49527 5.03011 5.49527V4.36029ZM4.48274 5.78903C4.48274 6.18071 4.34806 6.51453 4.07872 6.79049C3.80938 7.06645 3.47921 7.20443 3.08823 7.20443H2.52782C2.14553 7.20443 1.81971 7.06645 1.55036 6.79049C1.28102 6.51453 1.14635 6.18071 1.14635 5.78903V3.78612H4.48274V5.78903ZM2.47569 1.39597C2.56257 1.22684 2.53651 1.09331 2.39749 0.995387C2.24979 0.897467 2.12815 0.919721 2.03258 1.06215L1.88921 1.24909C1.73282 1.50724 1.66983 1.78543 1.70024 2.08364C1.73065 2.38185 1.85012 2.63778 2.05864 2.85142C2.11077 2.90483 2.17594 2.93154 2.25413 2.93154C2.33233 2.93154 2.39749 2.90483 2.44962 2.85142C2.56257 2.71789 2.56257 2.58437 2.44962 2.45084C2.33667 2.33512 2.27151 2.19491 2.25413 2.03023C2.23676 1.86554 2.27585 1.71199 2.37143 1.56956L2.47569 1.39597ZM3.45315 2.10367L3.55741 1.99685C3.67905 1.87222 3.68774 1.73869 3.58348 1.59626C3.54872 1.54285 3.49007 1.51392 3.40753 1.50947C3.32499 1.50502 3.25766 1.52505 3.20552 1.56956L3.08823 1.67638C2.89708 1.84551 2.81454 2.04581 2.84061 2.27725C2.86667 2.5265 3.00569 2.7268 3.25766 2.87813C3.27503 2.91374 3.30979 2.93154 3.36192 2.93154C3.46618 2.93154 3.55307 2.88703 3.62257 2.79801C3.71815 2.62888 3.67905 2.49535 3.50528 2.39743C3.4097 2.33512 3.36192 2.28616 3.36192 2.25055L3.45315 2.10367Z" fill="black"/>
</g>
<defs>
<clipPath id="clip0_13409_121">
<rect width="5.63016" height="6.83662" fill="white" transform="translate(0.585938 0.941406)"/>
</clipPath>
</defs>
</svg>
